<?xml version="1.0" encoding="iso-8859-1"?>
<!-- Generator: Adobe Illustrator 23.0.1, SVG Export Plug-In . SVG Version: 6.00 Build 0)  -->
<svg fill="#ffffff" version="1.1" id="Camada_1" xmlns="http://www.w3.org/2000/svg" xmlns:xlink="http://www.w3.org/1999/xlink" x="0px" y="0px"
	 viewBox="0 0 41.708 77.094" style="enable-background:new 0 0 41.708 77.094;" xml:space="preserve">
<g>
	<g>
		<defs>
			<rect id="SVGID_1_" x="0.089" y="0.192" width="42" height="76.902"/>
		</defs>
		<clipPath id="SVGID_2_">
			<use xlink:href="#SVGID_1_"  style="overflow:visible;"/>
		</clipPath>
		<path style="clip-path:url(#SVGID_2_);" d="M40.101,0.109l-9.973-0.015c-11.203,0-18.445,7.429-18.445,18.925v8.727H1.655
			c-0.863,0-1.566,0.699-1.566,1.566v12.645c0,0.863,0.703,1.566,1.566,1.566h10.028v31.903c0,0.863,0.703,1.566,1.57,1.566h13.078
			c0.867,0,1.57-0.703,1.57-1.566V43.523h11.723c0.867,0,1.567-0.703,1.567-1.566l0.007-12.645c0-0.414-0.168-0.812-0.461-1.109
			c-0.293-0.293-0.691-0.457-1.109-0.457H27.901v-7.398c0-3.555,0.848-5.36,5.477-5.36l6.719-0.004c0.867,0,1.566-0.703,1.566-1.566
			V1.68C41.663,0.812,40.964,0.113,40.101,0.109L40.101,0.109z M40.101,0.109"/>
	</g>
</g>
</svg>
